<?xml version="1.0" standalone="no"?><!DOCTYPE svg PUBLIC "-//W3C//DTD SVG 1.1//EN" "http://www.w3.org/Graphics/SVG/1.1/DTD/svg11.dtd"><svg t="1590646330145" class="icon" viewBox="0 0 1024 1024" version="1.1" xmlns="http://www.w3.org/2000/svg" p-id="70652" xmlns:xlink="http://www.w3.org/1999/xlink" width="128" height="128"><defs><style type="text/css"></style></defs><path d="M847.692 912.221H182.391c-80.242 0-145.542-65.301-145.542-145.521V257.3c0-80.243 65.301-145.521 145.542-145.521h665.301c80.264 0 145.542 65.278 145.542 145.542v509.377c0 80.221-65.278 145.521-145.542 145.521zM182.39 153.367c-57.322 0-103.956 46.633-103.956 103.956V766.7c0 57.322 46.656 103.956 103.956 103.956h665.301c57.345 0 103.978-46.633 103.978-103.956V257.3c0-57.322-46.633-103.956-103.978-103.956H182.39z m322.271 378.137c-4.1 0-8.221-1.212-11.724-3.637L123.879 275.548c-9.476-6.479-11.901-19.416-5.443-28.893 6.479-9.455 19.416-11.879 28.914-5.443L504.992 485.73l378.182-244.782c9.631-6.259 22.523-3.482 28.782 6.149 6.215 9.652 3.46 22.523-6.171 28.761l-389.84 252.276a20.595 20.595 0 0 1-11.284 3.372z" p-id="70653" fill="#999999"></path></svg>