<?xml version="1.0" standalone="no"?><!DOCTYPE svg PUBLIC "-//W3C//DTD SVG 1.1//EN" "http://www.w3.org/Graphics/SVG/1.1/DTD/svg11.dtd"><svg t="1590639931039" class="icon" viewBox="0 0 1024 1024" version="1.1" xmlns="http://www.w3.org/2000/svg" p-id="20925" xmlns:xlink="http://www.w3.org/1999/xlink" width="200" height="200"><defs><style type="text/css"></style></defs><path d="M469.856 470.336a16 16 0 0 0 10.56-3.968L842.56 148.864l-21.12-24.064-362.144 317.472a16 16 0 0 0 10.56 28.064z" fill="#828282" p-id="20926"></path><path d="M326.016 1024C522.56 1024 640 869.44 640 720c0-43.072-10.304-90.528-25.536-121.344l144.704-72.352A16 16 0 0 0 768 512v-128h96l3.616-0.192c21.312-1.44 27.68-8.224 28.384-31.808V224h96c4.128 0 6.976 0.448 8.896 0.736 3.872 0.608 11.104 1.728 17.376-3.904 6.464-5.76 6.176-13.056 5.92-19.488C1024.128 199.04 1024 196 1024 192V47.008A47.04 47.04 0 0 0 976.992 0h-124a47.36 47.36 0 0 0-31.008 11.648L400 381.568c-20.768-4.16-52.16-9.568-74.016-9.568C146.24 372 0 518.24 0 697.984S146.24 1024 326.016 1024z m0-620c16.032 0 43.488 3.84 75.328 10.496a15.84 15.84 0 0 0 13.824-3.616L843.04 35.776A15.168 15.168 0 0 1 852.992 32h124c8.288 0 15.008 6.72 15.008 15.008V192h-112a16 16 0 0 0-16 16V352h-112a16 16 0 0 0-16 16v134.112l-151.168 75.584a16 16 0 0 0-5.824 23.68c14.08 19.424 28.992 67.648 28.992 118.624 0 133.696-105.472 272-281.984 272C163.904 992 32 860.096 32 697.984s131.904-293.984 294.016-293.984z" fill="#828282" p-id="20927"></path><path d="M272 864c61.76 0 112-50.24 112-112S333.76 640 272 640 160 690.24 160 752 210.24 864 272 864z m0-192c44.096 0 80 35.904 80 80S316.096 832 272 832 192 796.096 192 752 227.904 672 272 672z" fill="#828282" p-id="20928"></path></svg>