<?xml version="1.0" standalone="no"?><!DOCTYPE svg PUBLIC "-//W3C//DTD SVG 1.1//EN" "http://www.w3.org/Graphics/SVG/1.1/DTD/svg11.dtd"><svg t="1590645678656" class="icon" viewBox="0 0 1024 1024" version="1.1" xmlns="http://www.w3.org/2000/svg" p-id="54962" width="200" height="200" xmlns:xlink="http://www.w3.org/1999/xlink"><defs><style type="text/css"></style></defs><path d="M888.3 875.1V451.5c0-22.2-8.8-43.2-24.7-59.1-15.9-15.9-36.9-24.7-59.1-24.7h-37.7V308c0-64.9-25.4-126.1-71.7-172.3C648.9 89.5 587.7 64 522.8 64s-126.1 25.4-172.3 71.6c-46.2 46.2-71.7 107.4-71.7 172.3v59.7H219c-22.2 0-43.2 8.8-59.1 24.7-15.9 15.9-24.7 36.9-24.7 59.1v425.3c0 48.6 35.3 83.8 83.8 83.8h585.4c28.4 0 52.4-9.7 67.7-27.3 13.4-15.4 19-35.4 16.2-58.1zM325 307.9c0-52.6 20.6-102.2 58.1-139.7 37.5-37.5 87.1-58.1 139.6-58.1 52.6 0 102.2 20.6 139.6 58.1 37.5 37.5 58.1 87.1 58.1 139.6v59.7H325v-59.6z m512.2 595.2c-6.3 7.2-18.2 11.4-32.8 11.4H219c-18.2 0-37.7-9.9-37.7-37.7V451.5c0-20.4 17.3-37.7 37.7-37.7h585.4c20.4 0 37.7 17.3 37.7 37.7v425.2c0 1.1 0.1 2.2 0.2 3.3 1.5 9.8-0.3 17.5-5.1 23.1z" p-id="54963" fill="#999999"></path><path d="M606.7 608.2c0-50.8-41.3-92.1-92.1-92.1s-92.1 41.3-92.1 92.1c0 42.8 29.4 78.9 69.1 89.2v91.7c0 12.7 10.3 23.1 23.1 23.1 12.7 0 23.1-10.3 23.1-23.1v-91.7c39.5-10.3 68.9-46.4 68.9-89.2z m-92.2 46c-25.4 0-46-20.6-46-46s20.6-46 46-46 46 20.6 46 46c0 25.3-20.6 46-46 46z" p-id="54964" fill="#999999"></path></svg>