<?xml version="1.0" standalone="no"?><!DOCTYPE svg PUBLIC "-//W3C//DTD SVG 1.1//EN" "http://www.w3.org/Graphics/SVG/1.1/DTD/svg11.dtd"><svg t="1590646120213" class="icon" viewBox="0 0 1024 1024" version="1.1" xmlns="http://www.w3.org/2000/svg" p-id="66740" width="128" height="128" xmlns:xlink="http://www.w3.org/1999/xlink"><defs><style type="text/css"></style></defs><path d="M909.84918 77.219672c0-6.714754-6.714754-13.429508-16.786885-16.786885-13.429508-3.357377-53.718033 20.144262-73.862295 33.57377-13.429508 10.072131-30.216393 16.786885-43.645902 23.50164-26.859016 16.786885-57.07541 33.57377-87.291803 50.360655-57.07541 30.216393-114.15082 60.432787-171.226229 94.006558-60.432787 33.57377-117.508197 63.790164-177.940984 97.363934-50.360656 26.859016-97.363934 53.718033-147.72459 80.577049-26.859016 16.786885-57.07541 30.216393-83.934426 47.003279-3.357377 0-6.714754 3.357377-6.714755 3.357377-6.714754 3.357377-13.429508 10.072131-13.429508 20.144262 0 6.714754 3.357377 16.786885 13.429508 20.144263l184.655738 100.721311c10.072131 6.714754 23.501639 3.357377 30.216394-10.072131 6.714754-10.072131 3.357377-23.501639-10.072132-30.216393l-151.081967-80.57705L792.340984 167.868852 399.527869 637.901639s0 3.357377-3.357377 3.357377v6.714754l3.357377 241.731148c0 13.429508 10.072131 23.501639 23.501639 23.501639s23.501639-10.072131 23.50164-23.501639l-3.357378-235.016393L852.77377 164.511475l-100.721311 664.760656-218.229508-117.508197c-10.072131-6.714754-23.501639-3.357377-30.216394 10.072132-6.714754 10.072131-3.357377 23.501639 10.072132 30.216393l245.088524 134.295082c3.357377 3.357377 6.714754 3.357377 10.072131 3.357377s6.714754 0 10.072131-3.357377c6.714754-3.357377 10.072131-10.072131 13.429509-16.786885 3.357377-26.859016 6.714754-50.360656 13.429508-77.219672 10.072131-60.432787 20.144262-124.222951 30.216393-184.655738 10.072131-73.862295 23.501639-147.72459 33.573771-221.586885 10.072131-63.790164 20.144262-127.580328 30.216393-194.727869 3.357377-20.144262 6.714754-36.931148 6.714754-57.07541 3.357377-16.786885 6.714754-43.645902 3.357377-57.07541z" fill="#999999" p-id="66741"></path></svg>