<?xml version="1.0" standalone="no"?><!DOCTYPE svg PUBLIC "-//W3C//DTD SVG 1.1//EN" "http://www.w3.org/Graphics/SVG/1.1/DTD/svg11.dtd"><svg t="1595929641956" class="icon" viewBox="0 0 1024 1024" version="1.1" xmlns="http://www.w3.org/2000/svg" p-id="4577" xmlns:xlink="http://www.w3.org/1999/xlink" width="200" height="200"><defs><style type="text/css"></style></defs><path d="M887.8 138.6c0-0.4 0.1-0.9 0-1.3-0.3-1.7-0.9-3.3-1.8-4.7 0-0.1 0-0.2-0.1-0.3-0.2-0.3-0.5-0.5-0.7-0.7-0.7-1-1.6-2-2.6-2.7-0.5-0.4-1-0.7-1.6-1-0.5-0.3-0.9-0.7-1.5-1-0.5-0.2-1-0.2-1.4-0.4-0.6-0.2-1.1-0.3-1.7-0.4-1.2-0.2-2.4-0.2-3.6-0.1-0.4 0-0.9 0-1.3 0.1-1.5 0.3-2.9 0.8-4.2 1.6-0.2 0.1-0.3 0.1-0.5 0.2l-0.2 0.1-0.1 0.1-725.3 423c-4.1 2.5-6.5 7-6.5 11.7 0 4.8 2.5 9.2 6.5 11.7L331 688.8c2.3 1.4 4.8 2.1 7.3 2.1 4.6 0 9.1-2.3 11.7-6.5 4-6.5 2.1-15-4.4-19l-171-102.5 642.6-371.7-417.6 518.3c-1.9 2.5-2.9 5.5-2.8 8.5 0.5 59.6 1.1 157 0.2 167.4-1 5.5 1.5 11.2 6.3 14.2 2.3 1.4 4.8 2.1 7.3 2.1 3.6 0 7.1-1.4 9.8-4.1l128.7-128.7 214.6 74.2c3.9 1.5 8.3 1.1 11.9-0.9 3.6-2.1 6.1-5.7 6.7-9.9l105.5-690.6c0.2-1.1 0.1-2.1 0-3.1zM757.6 811.1l-206.9-71.2c-5.1-1.9-10.9-0.7-14.7 3.1L425.1 853.9c0.1-24.3 0-64.4-0.6-131.4L852.4 191l-94.8 620.1z" fill="#999999" p-id="4578"></path></svg>